<svg xmlns="http://www.w3.org/2000/svg" viewBox="0 0 512 512" width="100" height="100" fill="#9fcfff" stroke="#9fcfff" stroke-width="0"><path stroke="none" d="M0 313.528h477.483v34.517H0zM0 428.584h477.483v34.517H0zM34.517 371.056H512v34.517H34.517zM407.71 199.956c-7.969-84.624-79.417-151.057-166.092-151.057S83.496 115.332 75.526 199.956C32.628 207.763 0 245.401 0 290.517h34.517c0-31.721 25.807-57.528 57.528-57.528h17.258V215.73c0-72.958 59.356-132.315 132.315-132.315s132.315 59.356 132.315 132.315v17.258h17.258c31.721 0 57.528 25.807 57.528 57.528h34.517c0-45.115-32.628-82.753-75.526-90.56z"/></svg>