<svg xmlns="http://www.w3.org/2000/svg" viewBox="0 0 18.467 18.467"><g fill="red"><path d="M17.109 5.454a.684.684 0 00-.962-.086l-1.894 1.591-.871-2.158a.67.67 0 00-.132-.209 1.854 1.854 0 00-.913-.933 1.879 1.879 0 00-.567-.151c-.042-.022-.08-.051-.128-.066l-3.333-.929a.686.686 0 00-.529.072.667.667 0 00-.415.388L6.11 6.2a.685.685 0 00.39.885.685.685 0 00.884-.391l1.06-2.725 1.518.422c-.037.06-.077.116-.107.18L7.909 8.789c-.028.062-.043.125-.063.189l-2.365 3.965-3.958 1.324a1.011 1.011 0 001.201 1.627l4.05-1.395a.971.971 0 00.282-.335c.051-.054.109-.097.148-.164l1.41-2.364 2.503 2.133-2.678 3.018a1.01 1.01 0 101.513 1.339l3.342-3.765a.999.999 0 00.208-.39c.025-.076.025-.155.031-.234 0-.04.015-.076.012-.113a.99.99 0 00-.347-.735l-2.303-1.964c.166-.158.307-.346.409-.567l1.492-3.231.478 1.273c.02.113.058.224.138.317a.657.657 0 00.262.183c.01.005.022.006.034.009a.668.668 0 00.19.046.65.65 0 00.234-.025l.003-.001c.021-.005.042-.001.063-.01a.675.675 0 00.269-.196l2.718-2.307c.289-.243.167-.673-.076-.962z"/><circle cx="13.671" cy="1.905" r="1.905"/></g></svg>