<svg xmlns="http://www.w3.org/2000/svg" viewBox="0 0 432.464 432.464">
<!-- <path d="M417.297 363.067L232.809 43.523c-2.895-5.015-7.057-8.561-11.743-10.66v-2.277l-12.349.055c-8.138.52-16.064 4.813-20.723 12.882L3.505 363.067c-9.959 17.249 2.49 38.811 22.407 38.811H394.89c19.918 0 32.366-21.562 22.407-38.811z" fill=""/> -->
<path d="M15.166 363.067L199.655 43.523c9.959-17.249 34.856-17.249 44.815 0l184.489 319.544c9.959 17.249-2.49 38.811-22.407 38.811H37.574c-19.918 0-32.367-21.562-22.408-38.811z" fill="gray"/>
<path fill="#f9ed82" d="M48.184 369.878L222.062 68.712l173.877 301.166z"/><circle cx="222.062" cy="323.818" r="24" fill="#666"/>
<path d="M222.062 148.818c-12.982 0-23.251 10.992-22.367 23.944l6.348 93.091c.574 8.424 7.576 14.965 16.02 14.965 8.444 0 15.445-6.54 16.02-14.965l6.348-93.091c.881-12.951-9.387-23.944-22.369-23.944z" fill="#666"/>
</svg>