<svg version="1.1" id="Layer_1" xmlns="http://www.w3.org/2000/svg" x="0" y="0" viewBox="0 0 17 17" xml:space="preserve"><style>.st0{display:none}.st1{display:inline}.st4,.st7{fill:#fff}.st7{display:inline}.st9{fill:#343334;stroke:#343334;stroke-width:.1835;stroke-miterlimit:10}</style><g class="st0"><g class="st1"><circle cx="8.5" cy="8.5" r="8" fill="#ff5050"/><circle cx="8.5" cy="8.5" r="8" fill="none" stroke="#c92727" stroke-width=".8" stroke-miterlimit="10"/></g><g class="st1"><circle class="st4" cx="8.32" cy="4.5" r=".85"/><path class="st4" d="M10.13 10.13L9.05 9.02V6.6c0-.11-.02-.22-.06-.32-.15-.34-.48-.4-.73-.39-.18.01-.35.07-.49.18L6.5 7.19l-.88 1.3c-.11.17-.07.39.1.5.17.11.39.05.5-.12l.68-1.14.77-.56.02 1.85c0 .13.05.24.14.33l1.54 1.51.8 1.82a.489.489 0 00.9-.38l-.94-2.17z"/><path class="st4" d="M5.8 12.06c-.14.22-.1.52.1.69.23.19.56.14.72-.11l1.55-2.42-.72-.75-1.65 2.59zM11.46 7.91l-1.18-.6-.92-1.01-.03.98.43.46 1.35.79c.17.1.39.04.49-.14.11-.17.04-.39-.14-.48z"/></g></g><g class="st0"><g class="st1"><circle cx="8.5" cy="8.5" r="8" fill="#00b4a0"/><circle cx="8.5" cy="8.5" r="8" fill="none" stroke="#07705e" stroke-width=".8" stroke-miterlimit="10"/></g><path class="st7" d="M11.56 7.31l-.46-1.87h.54c.23 0 .41-.18.41-.41s-.18-.41-.41-.41h-1.07c-.13 0-.25.06-.32.16-.08.1-.11.23-.07.35l.26 1.05H7.28V5.8h.27c.23 0 .41-.18.41-.41 0-.23-.18-.41-.41-.41h-.94c-.23 0-.41.18-.41.41 0 .17.11.32.27.38v.7l-.57.95c-.21-.08-.44-.11-.67-.11-1.13 0-2.05.92-2.05 2.05s.92 2.04 2.05 2.04c.97 0 1.81-.7 2.01-1.64h.78c.03 0 .05 0 .06-.01h.03c.01 0 .02 0 .03-.01l.09-.04c.01 0 .01-.01.01-.01h-.01l2.5-2.34.04.14c-.71.35-1.17 1.07-1.17 1.86 0 1.13.92 2.05 2.05 2.05s2.05-.92 2.05-2.05c0-1.16-.97-2.1-2.14-2.04zm1.32 2.04a1.23 1.23 0 11-2.46 0c0-.02 0-.04.01-.06 0-.02.01-.04.01-.07 0-.06.01-.13.03-.18l.02-.07a1.188 1.188 0 011.62-.76c.46.19.77.64.77 1.14zm-6.49.41c-.17.49-.63.82-1.16.82-.67 0-1.23-.55-1.23-1.23 0-.5.3-.94.76-1.13.15-.07.32-.1.48-.1.43 0 .82.23 1.05.63l.01.02c.04.07.06.14.09.22.01.01.02.03.02.05l.01.03c.02.09.03.17.03.25 0 .1-.02.2-.05.32l-.04.12h.03zm1.87-1.18l-.36.38-.47-.02h-.19c-.09-.42-.31-.81-.63-1.1l.5-.85h.48V7h2.34L8.25 8.57l.01.01zm-.15 1.06z"/></g><g class="st0"><path d="M15.67 10.46l-4.68-7.83c-.56-.95-1.55-1.5-2.65-1.5s-2.09.56-2.65 1.5l-4.68 7.83c-.57.96-.59 2.13-.03 3.11s1.55 1.57 2.68 1.57h9.35c1.13 0 2.13-.59 2.68-1.57.57-.98.55-2.14-.02-3.11z" fill="#fed500" stroke="#a88909" stroke-width=".955" stroke-miterlimit="10"/><g class="st1"><circle class="st9" cx="8.34" cy="11.3" r=".79"/><path class="st9" d="M8.26 5.26c-.23.02-.43.12-.57.3a.86.86 0 00-.2.62l.26 3.03c.03.28.25.51.53.53h.05c.14 0 .26-.05.37-.14.12-.09.19-.25.2-.4l.26-3.03v-.14a.788.788 0 00-.3-.57c-.14-.14-.36-.21-.6-.2z"/></g></g><circle cx="8.5" cy="8.5" r="8" fill="#8c9696"/><circle cx="8.5" cy="8.5" r="8" fill="none" stroke="#606666" stroke-width=".8" stroke-miterlimit="10"/><g><path class="st4" d="M11.16 11.42H5.84c-.29 0-.53.24-.53.53 0 .29.24.53.53.53h5.31c.29 0 .53-.24.53-.53a.519.519 0 00-.52-.53zM12.22 9.3H4.78c-.29 0-.53.24-.53.53 0 .29.24.53.53.53h7.44c.29 0 .53-.24.53-.53 0-.3-.24-.53-.53-.53zM4.78 8.23h.6c-.04-.16-.07-.34-.07-.53 0-1.17.95-2.12 2.12-2.12.9 0 1.71.57 2 1.43l.27.78.82-.07c.04 0 .12-.01.12-.01.37 0 .7.22.88.53h.68c.17 0 .33.03.48.08a2.133 2.133 0 00-2.08-1.68c-.06 0-.12.01-.18.02a3.172 3.172 0 00-3.01-2.14c-1.76 0-3.19 1.43-3.19 3.19 0 .21.03.41.06.61.18-.05.34-.09.5-.09z"/></g><g class="st0"><g class="st1"><circle cx="8.5" cy="8.5" r="8" fill="#3295d8"/><circle cx="8.5" cy="8.5" r="8" fill="none" stroke="#0b6e99" stroke-width=".8" stroke-miterlimit="10"/></g><path class="st7" d="M10.64 6.31l-.19-1.03C10.3 4.41 9.7 3.9 8.81 3.9H7.19c-.8 0-1.41.5-1.64 1.34l-.2 1.09c-.58.18-1 .68-1 1.26v.57c0 .52.33.97.8 1.19v.56c0 .3.24.47.54.47.3 0 .54-.17.54-.47v-.4h3.5v.41c0 .3.24.47.54.47.3 0 .54-.17.54-.47v-.53c.52-.21.88-.68.88-1.22V7.6c.02-.61-.43-1.13-1.05-1.29zm-4.36-.88c.08-.3.31-.78.92-.78h1.62c.54 0 .82.23.91.76l.15.85H6.13l.15-.83zm-.34 3.08c-.34 0-.62-.28-.62-.62 0-.34.28-.62.62-.62.34 0 .62.28.62.62a.61.61 0 01-.62.62zm4.08 0c-.34 0-.62-.28-.62-.62 0-.34.28-.62.62-.62.34 0 .62.28.62.62 0 .34-.28.62-.62.62z"/><path fill="none" stroke="#fff" stroke-width=".979" stroke-linecap="round" stroke-linejoin="round" stroke-miterlimit="10" d="M9.22 11.58h2.86"/></g></svg>