<svg version="1.1" id="Layer_1" xmlns="http://www.w3.org/2000/svg" x="0" y="0" viewBox="0 0 25 25" xml:space="preserve"><style>.st0{display:none}.st1{display:inline}.st4{fill:#fff}.st9{fill:#343334}</style><g class="st0"><g class="st1"><circle cx="12.5" cy="12.5" r="10" fill="#04a089"/><path d="M12.5 23C6.71 23 2 18.29 2 12.5S6.71 2 12.5 2 23 6.71 23 12.5 18.29 23 12.5 23zm0-20C7.26 3 3 7.26 3 12.5S7.26 22 12.5 22s9.5-4.26 9.5-9.5S17.74 3 12.5 3z" fill="#2cffe0"/></g><g class="st1"><path class="st4" d="M16.33 11.01l-.58-2.34h.68c.28 0 .51-.23.51-.51s-.23-.51-.51-.51h-1.34a.48.48 0 00-.4.2c-.1.13-.13.29-.09.44l.33 1.31h-3.94v-.47h.34c.28 0 .51-.23.51-.51s-.23-.51-.51-.51h-1.18a.512.512 0 00-.18.99v.87l-.7 1.18a2.565 2.565 0 00-3.4 2.42c0 1.41 1.15 2.56 2.56 2.56 1.21 0 2.27-.87 2.51-2.05h.98c.03 0 .06 0 .07-.01l.04-.01c.01 0 .03-.01.04-.01l.11-.05c.01 0 .01-.01.01-.01h-.01l3.12-2.92.04.18c-.89.43-1.46 1.32-1.46 2.31 0 1.41 1.15 2.56 2.56 2.56S19 14.98 19 13.57c0-1.45-1.22-2.63-2.67-2.56zm1.64 2.56a1.54 1.54 0 01-3.08 0c0-.03.01-.05.01-.08.01-.03.01-.05.01-.08.01-.08.01-.16.03-.23l.03-.08c.19-.64.77-1.07 1.43-1.07.2 0 .4.04.6.13.59.22.97.78.97 1.41zm-8.11.51c-.21.61-.79 1.02-1.45 1.02-.85 0-1.54-.69-1.54-1.54 0-.62.37-1.18.95-1.42.19-.09.4-.13.6-.13.53 0 1.03.29 1.31.79l.02.03c.04.09.08.17.11.27.01.02.02.04.02.06l.01.04c.02.11.03.21.03.31 0 .12-.02.24-.06.39l-.05.17h.05zm2.34-1.48l-.45.47-.59-.02h-.23a2.57 2.57 0 00-.79-1.38l.62-1.07h.6l.01.02h2.92l-2.09 1.97v.01zm-.18 1.33z"/></g></g><g class="st0"><g class="st1"><circle cx="12.5" cy="12.5" r="10" fill="#ff5050"/><path d="M12.5 23C6.71 23 2 18.29 2 12.5S6.71 2 12.5 2 23 6.71 23 12.5 18.29 23 12.5 23zm0-20C7.26 3 3 7.26 3 12.5S7.26 22 12.5 22s9.5-4.26 9.5-9.5S17.74 3 12.5 3z" fill="#fcc0c0"/></g><g class="st1"><circle class="st4" cx="12.27" cy="7.5" r="1.06"/><path class="st4" d="M14.54 14.54l-1.35-1.39v-3.02c0-.14-.02-.28-.08-.4-.19-.42-.59-.49-.9-.48-.22.01-.44.09-.62.22L10 10.86l-1.1 1.62a.44.44 0 00.13.62c.21.14.49.07.62-.15l.84-1.42.96-.69.03 2.31c0 .16.07.31.18.42l1.92 1.89 1 2.28c.13.31.5.46.81.32.3-.13.44-.49.31-.79l-1.16-2.73z"/><path class="st4" d="M9.12 16.95c-.18.28-.12.65.13.87.28.24.7.17.9-.14l1.93-3.02-.9-.94-2.06 3.23zM16.2 11.76l-1.47-.75-1.15-1.26-.03 1.22.54.57 1.69.99a.439.439 0 10.42-.77z"/></g></g><g class="st0"><g class="st1"><path d="M3.05 19.48c.71 1.26 2 2.02 3.44 2.02H18.5c1.45 0 2.73-.76 3.44-2.02s.69-2.75-.04-3.99l-6-10.06c-.71-1.22-2-1.93-3.4-1.93s-2.69.71-3.4 1.93L3.09 15.49c-.73 1.24-.76 2.73-.04 3.99z" fill="#fed500"/><path d="M18.51 22.11H6.49c-1.67 0-3.15-.87-3.98-2.33-.82-1.45-.8-3.17.05-4.61L8.57 5.12c.82-1.4 2.29-2.23 3.93-2.23 1.64 0 3.11.84 3.93 2.24l6 10.06c.85 1.44.87 3.16.05 4.61a4.53 4.53 0 01-3.97 2.31zm-6.01-18c-1.2 0-2.28.61-2.87 1.63L3.62 15.81a3.332 3.332 0 00-.04 3.37c.6 1.07 1.69 1.71 2.91 1.71H18.5c1.22 0 2.31-.64 2.91-1.71.6-1.06.59-2.32-.04-3.38L15.38 5.75a3.295 3.295 0 00-2.88-1.64z" fill="#fff1b6"/></g><g class="st1"><circle class="st9" cx="12.5" cy="16.57" r="1.02"/><path class="st9" d="M12.5 17.71a1.14 1.14 0 11-.001-2.279 1.14 1.14 0 01.001 2.279zm0-2.04c-.5 0-.9.4-.9.9s.4.9.9.9.9-.4.9-.9-.4-.9-.9-.9z"/><g><path class="st9" d="M11.82 9.05c-.22.18-.36.44-.38.74v.18l.34 3.89c.02.2.1.4.26.52.14.12.3.18.48.18h.06c.36-.02.64-.32.68-.68l.34-3.89c.02-.3-.08-.58-.26-.8-.18-.22-.44-.36-.74-.38-.3-.02-.58.08-.78.24z"/><path class="st9" d="M12.52 14.68c-.21 0-.39-.07-.56-.21-.17-.12-.27-.34-.3-.6l-.34-3.89v-.19c.02-.33.17-.62.42-.83.24-.19.55-.29.86-.27.32.02.62.17.82.42s.31.56.29.88l-.34 3.89c-.05.43-.38.76-.79.79h-.06zm-.62-5.54c-.2.16-.32.4-.34.65v.17l.34 3.88c.01.11.05.31.21.43.12.11.26.16.41.16h.06c.28-.02.53-.26.56-.57l.34-3.89c.02-.25-.07-.51-.23-.71a.93.93 0 00-.65-.34c-.26-.01-.51.07-.7.22z"/></g></g></g><g class="st0"><g class="st1"><circle cx="12.5" cy="12.5" r="10" fill="#797f7f"/><path d="M12.5 23C6.71 23 2 18.29 2 12.5S6.71 2 12.5 2 23 6.71 23 12.5 18.29 23 12.5 23zm0-20C7.26 3 3 7.26 3 12.5S7.26 22 12.5 22s9.5-4.26 9.5-9.5S17.74 3 12.5 3z" fill="#ccd6d6"/></g><g class="st1"><path class="st4" d="M15.82 15.98H9.18a.66.66 0 100 1.32h6.64a.66.66 0 100-1.32zM17.15 13.33h-9.3a.66.66 0 100 1.32h9.29c.37 0 .66-.3.66-.66a.645.645 0 00-.65-.66zM7.85 12h.76a2.39 2.39 0 01-.09-.66c0-1.46 1.19-2.66 2.66-2.66 1.13 0 2.13.72 2.51 1.79l.34.97 1.03-.08c.05 0 .16-.02.16-.02.46 0 .88.27 1.1.66h.85c.21 0 .41.04.6.1a2.648 2.648 0 00-2.59-2.09c-.08 0-.15.02-.22.02a3.978 3.978 0 00-7.74 1.3c0 .26.03.51.08.76.16-.05.35-.09.55-.09z"/></g></g><circle cx="12.5" cy="12.5" r="10" fill="#2b91d6"/><path d="M12.5 23C6.71 23 2 18.29 2 12.5S6.71 2 12.5 2 23 6.71 23 12.5 18.29 23 12.5 23zm0-20C7.26 3 3 7.26 3 12.5S7.26 22 12.5 22s9.5-4.26 9.5-9.5S17.74 3 12.5 3z" fill="#cfeeff"/><path class="st4" d="M15.18 9.77l-.23-1.29c-.2-1.1-.95-1.72-2.07-1.72h-2.02c-1 0-1.77.63-2.05 1.68l-.24 1.35c-.72.23-1.25.85-1.25 1.58v.72c0 .65.41 1.21 1.01 1.49v.7c0 .37.3.59.68.59s.68-.21.68-.59v-.51h4.38v.51c0 .37.3.59.68.59.37 0 .68-.21.68-.59v-.66c.64-.26 1.09-.85 1.09-1.52v-.72c-.01-.77-.57-1.41-1.34-1.61zM9.72 8.66c.1-.37.39-.97 1.14-.97h2.02c.67 0 1.02.29 1.14.95l.19 1.06H9.53l.19-1.04zm-.41 3.85a.781.781 0 010-1.56.781.781 0 010 1.56zm5.08 0a.781.781 0 010-1.56.781.781 0 010 1.56z"/><g><path class="st4" d="M16.97 16.97H13.4c-.34 0-.61-.27-.61-.61s.27-.61.61-.61h3.58c.34 0 .61.27.61.61s-.28.61-.62.61z"/></g></svg>